<svg xmlns="http://www.w3.org/2000/svg" width="768" height="768" viewBox="0 0 768 768" role="img" aria-label="textured crop"><rect width="768" height="768" fill="#fff"/><g stroke="#111" stroke-linejoin="round" stroke-linecap="round"><path d="M257 304 Q237 223 285 168 Q328 122 384 132 Q440 122 483 168 Q531 223 511 304 Q467 270 448 235 Q420 268 384 270 Q348 268 320 235 Q301 270 257 304Z" fill="#111"/><circle cx="300" cy="178" r="17" fill="#101010" stroke="#fff" stroke-width="3"/><circle cx="345" cy="139" r="17" fill="#101010" stroke="#fff" stroke-width="3"/><circle cx="395" cy="143" r="17" fill="#101010" stroke="#fff" stroke-width="3"/><circle cx="442" cy="164" r="17" fill="#101010" stroke="#fff" stroke-width="3"/><circle cx="473" cy="209" r="17" fill="#101010" stroke="#fff" stroke-width="3"/><g data-strand-detail="true" fill="none" stroke="#fff" stroke-width="7" stroke-linecap="round" opacity=".9"><path d="M297 165 Q282 203 267 241"/><path d="M319 167 Q297 205 275 243"/><path d="M349 168 Q333 206 317 244"/><path d="M379 161 Q402 199 425 237"/><path d="M401 166 Q418 204 435 242"/><path d="M431 169 Q455 207 479 245"/><path d="M461 160 Q479 198 497 236"/></g><path d="M384 190 C294 190 250 257 257 359 L272 431 C285 482 330 516 384 525 C438 516 483 482 496 431 L511 359 C518 257 474 190 384 190Z" fill="#fff" stroke-width="8"/><path d="M308 350 Q340 338 360 351 M408 351 Q429 338 460 350 M384 353  M352 448 Q384 461 416 448" fill="none" stroke="#555" stroke-width="7" stroke-linecap="round"/></g></svg>